<?xml version="1.0" standalone="no"?>
<!DOCTYPE svg PUBLIC "-//W3C//DTD SVG 20010904//EN"
 "http://www.w3.org/TR/2001/REC-SVG-20010904/DTD/svg10.dtd">
<svg version="1.0" xmlns="http://www.w3.org/2000/svg"
 width="512.000000pt" height="512.000000pt" viewBox="0 0 512.000000 512.000000"
 preserveAspectRatio="xMidYMid meet">
<metadata>
Created by potrace 1.14, written by Peter Selinger 2001-2017
</metadata>
<g transform="translate(0.000000,512.000000) scale(0.100000,-0.100000)"
fill="#000000" stroke="none">
<path d="M1960 4650 c-25 -5 -56 -11 -70 -14 -14 -2 -29 -5 -33 -5 -5 -1 -5
-6 -1 -12 5 -8 2 -9 -11 -1 -11 6 -25 6 -34 1 -9 -4 -34 -16 -56 -26 -22 -9
-60 -31 -83 -48 -24 -16 -52 -35 -62 -40 -10 -6 -26 -17 -35 -25 -21 -18 -74
-97 -112 -168 -15 -28 -21 -32 -43 -26 -79 20 -152 14 -345 -30 -5 -1 -20 -7
-31 -14 -12 -6 -24 -8 -28 -5 -3 3 -6 1 -6 -5 0 -7 -6 -12 -13 -12 -21 0 -106
-66 -138 -106 -16 -22 -35 -46 -42 -54 -24 -29 -77 -138 -77 -157 0 -10 -5
-24 -11 -30 -6 -6 -12 -40 -14 -76 -2 -36 -5 -70 -8 -74 -2 -4 -3 -30 -1 -58
2 -27 6 -84 8 -125 7 -116 17 -184 28 -197 6 -7 8 -20 4 -28 -3 -8 -1 -15 5
-15 6 0 7 -4 4 -10 -3 -5 -1 -20 6 -32 7 -12 14 -35 15 -50 2 -15 17 -57 34
-94 16 -36 28 -70 25 -74 -3 -5 -1 -11 5 -15 5 -3 10 -15 10 -26 0 -10 4 -19
10 -19 9 0 32 -68 27 -81 -1 -4 6 -16 16 -27 10 -11 19 -29 20 -41 1 -11 4
-21 7 -21 3 0 7 -12 8 -26 1 -15 6 -32 11 -38 5 -6 11 -15 13 -21 1 -5 6 -9 9
-8 4 1 5 -7 2 -17 -3 -11 2 -35 10 -52 9 -18 19 -46 23 -63 4 -16 10 -34 14
-40 4 -5 11 -26 15 -45 4 -19 11 -41 16 -50 4 -8 15 -37 23 -65 38 -127 70
-207 96 -239 8 -11 10 -17 4 -13 -6 3 4 -24 22 -60 19 -37 34 -73 34 -80 0 -7
5 -13 11 -13 6 0 8 -9 4 -20 -4 -12 -2 -20 5 -20 6 0 9 -4 6 -9 -4 -5 -1 -22
5 -38 10 -26 20 -69 22 -100 0 -7 4 -13 9 -13 5 0 7 -4 4 -8 -3 -5 6 -76 20
-158 30 -178 32 -189 39 -282 3 -40 11 -85 17 -100 6 -15 13 -45 15 -67 2 -22
4 -46 5 -52 1 -7 4 -13 7 -13 3 0 7 -19 8 -42 2 -23 6 -44 10 -47 5 -3 10 -26
11 -51 2 -25 8 -50 13 -56 5 -6 6 -14 3 -17 -4 -3 -3 -14 1 -24 4 -10 9 -29
11 -42 2 -13 8 -27 14 -31 7 -4 11 -10 10 -14 -5 -18 47 -116 68 -129 6 -4 12
-13 12 -18 0 -15 23 -35 48 -43 12 -4 22 -13 22 -21 0 -8 9 -17 20 -20 11 -3
20 -10 20 -16 0 -10 113 -69 134 -69 8 0 20 -8 25 -17 6 -10 11 -15 11 -11 0
4 26 -2 58 -13 49 -17 74 -23 139 -33 7 -1 15 -5 18 -8 3 -3 19 -4 36 -2 21 3
28 0 23 -8 -5 -8 -2 -9 9 -5 10 3 17 3 17 -1 0 -4 30 -8 67 -8 37 -1 69 -6 70
-10 4 -11 85 -10 101 0 7 4 10 2 7 -6 -4 -10 11 -13 62 -12 38 0 76 -3 85 -8
10 -4 19 -4 23 1 5 10 43 7 53 -4 3 -2 11 0 19 6 7 6 13 8 13 3 0 -5 23 -9 50
-10 28 0 50 4 50 9 0 6 5 6 13 0 6 -5 41 -8 77 -6 36 2 76 4 90 4 14 1 31 6
39 12 12 9 13 9 7 0 -5 -9 2 -13 24 -13 17 0 29 4 26 8 -2 4 4 8 14 8 10 0 16
-5 13 -10 -4 -6 1 -6 13 -2 30 13 84 24 84 19 0 -3 6 -1 13 4 6 5 29 9 50 8
21 -1 42 4 48 12 6 7 15 10 20 7 5 -3 15 -2 21 2 11 7 27 11 66 16 6 1 12 5
12 10 0 4 7 8 15 8 8 0 15 5 15 11 0 6 6 9 13 6 7 -3 19 4 26 14 6 11 16 17
20 14 5 -3 23 6 39 20 16 14 34 25 40 25 5 0 12 7 16 15 3 8 13 15 22 15 10 0
15 3 11 6 -3 3 12 23 34 43 21 21 39 41 39 46 0 4 12 19 26 32 14 13 24 27 20
30 -3 3 3 12 14 20 11 8 20 20 20 27 0 8 7 16 15 20 8 3 15 12 15 20 0 8 11
38 24 67 14 29 23 56 20 61 -3 4 0 8 6 8 6 0 8 4 5 10 -3 5 -1 18 5 29 6 12 6
22 1 26 -6 3 -6 17 -1 35 5 16 11 60 15 97 4 37 11 84 15 103 5 19 10 55 11
80 1 25 5 50 8 55 3 6 6 18 7 28 1 9 3 18 4 20 1 1 3 27 5 57 2 30 7 82 11
115 4 33 8 85 9 115 1 30 6 63 10 73 4 10 5 33 2 52 -3 18 -3 36 1 40 6 6 13
83 13 150 1 17 7 73 15 125 8 53 13 108 10 122 -2 15 -2 29 1 32 3 3 7 29 8
58 1 29 5 63 8 76 8 29 27 90 38 120 6 15 5 22 -3 22 -7 0 -5 5 4 12 8 7 32
56 53 108 21 52 42 99 46 104 5 6 9 17 9 25 0 8 23 68 51 133 28 66 52 124 53
131 2 7 6 19 9 27 3 8 15 47 28 85 12 39 25 75 29 80 6 8 21 58 22 75 0 3 5
16 10 30 11 28 16 46 30 110 12 55 17 314 7 355 -4 17 -9 44 -11 60 -1 17 -8
41 -15 54 -7 14 -10 29 -7 33 3 5 0 17 -8 26 -8 9 -27 38 -41 63 -15 26 -40
58 -57 72 -16 14 -30 31 -30 37 0 6 -10 15 -22 20 -13 6 -36 18 -53 29 -16 10
-55 26 -85 36 -30 10 -59 20 -65 24 -26 15 -161 16 -235 1 -30 -6 -64 -11 -75
-11 -11 0 -34 -4 -52 -8 -31 -9 -33 -7 -44 24 -7 19 -15 32 -19 30 -3 -2 -7 8
-8 21 -1 14 -9 32 -17 40 -8 9 -15 20 -15 26 0 15 -76 87 -136 130 -110 77
-268 126 -392 119 -16 -1 -21 -5 -16 -13 6 -10 5 -10 -7 -1 -12 10 -18 10 -29
0 -10 -10 -11 -9 -5 2 6 10 1 12 -21 7 -16 -3 -58 -10 -94 -17 -36 -6 -72 -13
-80 -16 -8 -4 -19 -7 -25 -7 -27 -3 -134 -53 -167 -79 l-37 -29 -23 22 c-32
30 -76 52 -90 44 -7 -4 -8 -3 -4 4 4 7 1 12 -9 12 -9 0 -29 8 -43 19 -64 45
-259 72 -372 51z"/>
</g>
</svg>
